<mxfile host="app.diagrams.net" modified="2024-06-06T03:43:21.922Z" agent="Mozilla/5.0 (X11; Linux x86_64) AppleWebKit/537.36 (KHTML, like Gecko) Chrome/125.0.0.0 Safari/537.36 Edg/125.0.0.0" version="24.4.14" etag="zNd8hNKw_c5Kvex9502T" type="github">
  <diagram name="PÃ¡gina-1" id="HK_hRzkJzCr3H_7PqZH8">
    <mxGraphModel>
      <root>
        <mxCell id="0" />
        <mxCell id="1" parent="0" />
      </root>
    </mxGraphModel>
  </diagram>
</mxfile>
